<?xml version="1.0" encoding="UTF-8"?>
<svg id="Layer_1" data-name="Layer 1" xmlns="http://www.w3.org/2000/svg" viewBox="0 0 198.19 113.57">
  <defs>
    <style>
      .cls-1 {
        fill: #b0d235;
      }

      .cls-1, .cls-2 {
        stroke-width: 0px;
      }

      .cls-2 {
        fill: #fff;
      }
    </style>
  </defs>
  <g>
    <path class="cls-1" d="M81.53.24h-9.72c-2.01,0-3.64,1.64-3.64,3.65v14.62c0,1.86.77,3.63,2.13,4.9l21.63,20.11c.4.37,1.03.01.93-.52l-7.75-39.77c-.32-1.73-1.82-2.99-3.58-2.99"/>
    <path class="cls-1" d="M91.8,0h10.68c2.4,0,3.86,2.65,2.58,4.69l-10.7,18.11c-.45.76-1.6.56-1.76-.31l-3.66-18.96c-.37-1.82,1.01-3.53,2.87-3.53"/>
    <path class="cls-1" d="M110.14,2.48l-14.81,22.64c-1.21,1.84-1.6,4.1-1.1,6.25l2.47,10.49c.15.92,1.31,1.23,1.89.51l30.08-36.6c1.86-2.19.33-5.56-2.54-5.58l-11.68-.07c-1.74,0-3.37.87-4.31,2.34"/>
    <path class="cls-1" d="M98.21,50.54l1.48,7.57c.32,1.62,1.73,2.79,3.38,2.79h23.34c1.71,0,3.1-1.39,3.1-3.11V19.16c0-3.41-4.26-4.94-6.42-2.31l-23.67,28.91c-1.09,1.33-1.53,3.09-1.2,4.78"/>
    <path class="cls-1" d="M67.93,57.51v-24.07c0-2.79,3.27-4.28,5.36-2.45l18.85,16.41c.99.86,1.66,2.04,1.9,3.34l1.31,7.14c.32,1.76-1.04,3.39-2.83,3.37l-21.1-.18c-1.94-.02-3.5-1.6-3.5-3.54"/>
  </g>
  <g>
    <path class="cls-2" d="M29.86,110.49c-.59,2.25-1.53,3.08-3.89,3.08s-3.3-1.03-3.85-3.2l-4.21-17.32h-.08l-4.21,17.32c-.51,2.17-1.42,3.2-3.86,3.2s-3.3-.83-3.89-3.08L.31,88.91c-.16-.59-.31-1.22-.31-1.85,0-1.97,1.61-2.92,3.11-2.92,1.65,0,2.64.75,3.03,2.64l3.82,18.86h.08l4.41-19.09c.35-1.58.98-2.41,3.38-2.41,2.71,0,3.26,1.3,3.66,3.08l4.29,18.42h.08l3.85-18.86c.39-1.89,1.38-2.64,2.91-2.64s3.11.95,3.11,2.92c0,.63-.16,1.26-.31,1.85l-5.55,21.58Z"/>
    <path class="cls-2" d="M46.92,91.91c6.92,0,10.62,4.73,10.62,10.81,0,5.76-2.79,10.85-10.62,10.85s-10.62-5.09-10.62-10.85c0-6.08,3.7-10.81,10.62-10.81ZM46.92,109.31c3.42,0,4.88-3.08,4.88-6.59,0-3.75-1.53-6.55-4.88-6.55s-4.88,2.8-4.88,6.55c0,3.51,1.46,6.59,4.88,6.59Z"/>
    <path class="cls-2" d="M70.99,91.91c6.92,0,10.62,4.73,10.62,10.81,0,5.76-2.79,10.85-10.62,10.85s-10.62-5.09-10.62-10.85c0-6.08,3.7-10.81,10.62-10.81ZM70.99,109.31c3.42,0,4.88-3.08,4.88-6.59,0-3.75-1.53-6.55-4.88-6.55s-4.88,2.8-4.88,6.55c0,3.51,1.46,6.59,4.88,6.59Z"/>
    <path class="cls-2" d="M104.78,110.85c0,1.78-.83,2.72-2.6,2.72s-2.6-.95-2.6-2.72v-.91h-.08c-.94,2.45-3.26,3.63-6.06,3.63-4.8,0-9.01-3.51-9.01-10.97,0-5.52,2.79-10.69,8.85-10.69,2.56,0,4.52,1.07,5.66,2.92h.08v-7.81c0-1.89,1.14-2.88,2.87-2.88s2.87.99,2.87,2.88v23.83ZM94.75,109.07c3.34,0,4.6-3,4.6-6.27,0-2.96-1.1-6.43-4.6-6.39-3.66,0-4.56,3.71-4.56,6.39,0,3.39,1.49,6.19,4.56,6.27Z"/>
    <path class="cls-2" d="M137.27,110.49c-.59,2.25-1.53,3.08-3.89,3.08s-3.3-1.03-3.85-3.2l-4.21-17.32h-.08l-4.21,17.32c-.51,2.17-1.42,3.2-3.85,3.2s-3.3-.83-3.89-3.08l-5.55-21.58c-.16-.59-.31-1.22-.31-1.85,0-1.97,1.61-2.92,3.11-2.92,1.65,0,2.64.75,3.03,2.64l3.82,18.86h.08l4.41-19.09c.35-1.58.98-2.41,3.38-2.41,2.71,0,3.26,1.3,3.66,3.08l4.29,18.42h.08l3.85-18.86c.39-1.89,1.38-2.64,2.91-2.64s3.11.95,3.11,2.92c0,.63-.16,1.26-.31,1.85l-5.55,21.58Z"/>
    <path class="cls-2" d="M148.95,83.98c1.65,0,2.99,1.34,2.99,3s-1.34,3-2.99,3-2.99-1.34-2.99-3,1.34-3,2.99-3ZM146.08,94.79c0-1.54.63-2.88,2.87-2.88s2.87,1.34,2.87,2.88v15.9c0,1.54-.63,2.88-2.87,2.88s-2.87-1.34-2.87-2.88v-15.9Z"/>
    <path class="cls-2" d="M164.41,91.91c4.37,0,8.77,1.74,8.77,4.38,0,1.34-.9,2.52-2.4,2.52-2.24,0-2.32-2.64-5.94-2.64-2.01,0-3.3.55-3.3,1.78,0,1.34,1.3,1.66,3.07,2.05l2.4.55c3.27.75,7.16,2.13,7.16,6.15,0,4.69-4.52,6.86-8.85,6.86-5.19,0-9.52-2.33-9.52-5.17,0-1.26.71-2.41,2.32-2.41,2.48,0,2.71,3.55,6.96,3.55,2.05,0,3.34-.91,3.34-2.09,0-1.46-1.26-1.7-3.3-2.21l-3.38-.83c-3.34-.83-5.94-2.21-5.94-6.08,0-4.69,4.64-6.43,8.61-6.43Z"/>
    <path class="cls-2" d="M182.7,103.82c0,3.04,1.97,5.25,5.31,5.25,4.33,0,4.33-2.84,6.65-2.84,1.38,0,2.36,1.18,2.36,2.25,0,3.47-5.55,5.09-9.01,5.09-8.02,0-11.05-5.44-11.05-10.45,0-6.71,4.05-11.2,10.86-11.2s10.38,4.69,10.38,9.43c0,1.97-.59,2.49-2.52,2.49h-12.98ZM192.77,100.51c-.31-2.64-2.28-4.58-4.84-4.58-2.87,0-4.6,1.78-5.23,4.58h10.07Z"/>
  </g>
</svg>