<?xml version="1.0" encoding="UTF-8"?>
<svg id="Layer_1" data-name="Layer 1" xmlns="http://www.w3.org/2000/svg" viewBox="0 0 308.72 67.63">
  <defs>
    <style>
      .cls-1 {
        fill: #010101;
      }

      .cls-1, .cls-2 {
        stroke-width: 0px;
      }

      .cls-2 {
        fill: #0a8040;
      }
    </style>
  </defs>
  <g>
    <path class="cls-2" d="M15.15.27H4.33C2.09.27.27,2.08.27,4.3v16.15c0,2.05.86,4.01,2.37,5.41l24.09,22.21c.44.41,1.15.02,1.04-.57L19.14,3.58c-.35-1.92-2.03-3.31-3.99-3.31"/>
    <path class="cls-2" d="M26.58,0h11.9c2.67,0,4.3,2.93,2.87,5.18l-11.92,20c-.5.84-1.78.62-1.96-.34L23.39,3.89c-.41-2.01,1.13-3.89,3.19-3.89"/>
    <path class="cls-2" d="M47,2.74l-16.5,25.01c-1.34,2.04-1.79,4.53-1.22,6.9l2.75,11.58c.17,1.01,1.45,1.36,2.11.57L67.65,6.38c2.08-2.41.36-6.14-2.83-6.16l-13.01-.07c-1.94-.01-3.75.97-4.8,2.59"/>
    <path class="cls-2" d="M33.72,55.82l1.65,8.36c.35,1.79,1.93,3.08,3.77,3.08h25.99c1.91,0,3.45-1.54,3.45-3.43V21.16c0-3.77-4.75-5.46-7.15-2.55l-26.36,31.92c-1.22,1.47-1.71,3.41-1.34,5.28"/>
    <path class="cls-2" d="M0,63.51v-26.59c0-3.08,3.64-4.73,5.97-2.71l20.99,18.12c1.11.95,1.85,2.25,2.12,3.69l1.46,7.88c.36,1.95-1.15,3.74-3.15,3.73l-23.5-.2c-2.16-.02-3.9-1.77-3.9-3.91"/>
  </g>
  <g>
    <path class="cls-1" d="M121.23,49.52c-.66,2.5-1.71,3.42-4.34,3.42s-3.68-1.14-4.29-3.55l-4.69-19.23h-.09l-4.69,19.23c-.57,2.41-1.58,3.55-4.29,3.55s-3.68-.92-4.34-3.42l-6.18-23.96c-.18-.66-.35-1.36-.35-2.06,0-2.19,1.8-3.24,3.46-3.24,1.84,0,2.94.83,3.37,2.94l4.25,20.94h.09l4.91-21.2c.39-1.75,1.1-2.67,3.77-2.67,3.02,0,3.64,1.45,4.07,3.42l4.78,20.46h.09l4.29-20.94c.44-2.1,1.53-2.94,3.24-2.94s3.46,1.05,3.46,3.24c0,.7-.18,1.4-.35,2.06l-6.18,23.96Z"/>
    <path class="cls-1" d="M140.24,28.88c7.71,0,11.83,5.26,11.83,12,0,6.4-3.11,12.05-11.83,12.05s-11.83-5.65-11.83-12.05c0-6.75,4.12-12,11.83-12ZM140.24,48.2c3.81,0,5.43-3.42,5.43-7.32,0-4.16-1.71-7.27-5.43-7.27s-5.43,3.11-5.43,7.27c0,3.9,1.62,7.32,5.43,7.32Z"/>
    <path class="cls-1" d="M167.05,28.88c7.71,0,11.83,5.26,11.83,12,0,6.4-3.11,12.05-11.83,12.05s-11.83-5.65-11.83-12.05c0-6.75,4.12-12,11.83-12ZM167.05,48.2c3.81,0,5.43-3.42,5.43-7.32,0-4.16-1.71-7.27-5.43-7.27s-5.43,3.11-5.43,7.27c0,3.9,1.62,7.32,5.43,7.32Z"/>
    <path class="cls-1" d="M204.68,49.91c0,1.97-.92,3.02-2.89,3.02s-2.89-1.05-2.89-3.02v-1.01h-.09c-1.05,2.72-3.64,4.03-6.75,4.03-5.34,0-10.03-3.9-10.03-12.18,0-6.13,3.11-11.87,9.86-11.87,2.85,0,5.04,1.18,6.31,3.24h.09v-8.68c0-2.1,1.27-3.2,3.2-3.2s3.2,1.1,3.2,3.2v26.46ZM193.51,47.94c3.72,0,5.13-3.33,5.13-6.97,0-3.29-1.23-7.14-5.13-7.1-4.07,0-5.08,4.12-5.08,7.1,0,3.77,1.66,6.88,5.08,6.97Z"/>
    <path class="cls-1" d="M240.86,49.52c-.66,2.5-1.71,3.42-4.34,3.42s-3.68-1.14-4.29-3.55l-4.69-19.23h-.09l-4.69,19.23c-.57,2.41-1.58,3.55-4.29,3.55s-3.68-.92-4.34-3.42l-6.18-23.96c-.18-.66-.35-1.36-.35-2.06,0-2.19,1.8-3.24,3.46-3.24,1.84,0,2.94.83,3.37,2.94l4.25,20.94h.09l4.91-21.2c.39-1.75,1.1-2.67,3.77-2.67,3.02,0,3.64,1.45,4.07,3.42l4.78,20.46h.09l4.29-20.94c.44-2.1,1.53-2.94,3.24-2.94s3.46,1.05,3.46,3.24c0,.7-.18,1.4-.35,2.06l-6.18,23.96Z"/>
    <path class="cls-1" d="M253.87,20.07c1.84,0,3.33,1.49,3.33,3.33s-1.49,3.33-3.33,3.33-3.33-1.49-3.33-3.33,1.49-3.33,3.33-3.33ZM250.67,32.08c0-1.71.7-3.2,3.2-3.2s3.2,1.49,3.2,3.2v17.66c0,1.71-.7,3.2-3.2,3.2s-3.2-1.49-3.2-3.2v-17.66Z"/>
    <path class="cls-1" d="M271.09,28.88c4.86,0,9.77,1.93,9.77,4.86,0,1.49-1.01,2.8-2.67,2.8-2.5,0-2.59-2.94-6.62-2.94-2.23,0-3.68.61-3.68,1.97,0,1.49,1.45,1.84,3.42,2.28l2.67.61c3.64.83,7.97,2.37,7.97,6.83,0,5.21-5.04,7.62-9.86,7.62-5.78,0-10.6-2.58-10.6-5.74,0-1.4.79-2.67,2.59-2.67,2.76,0,3.02,3.94,7.76,3.94,2.28,0,3.72-1.01,3.72-2.32,0-1.62-1.4-1.88-3.68-2.45l-3.77-.92c-3.72-.92-6.62-2.45-6.62-6.75,0-5.21,5.17-7.14,9.59-7.14Z"/>
    <path class="cls-1" d="M291.46,42.11c0,3.37,2.19,5.83,5.91,5.83,4.82,0,4.82-3.15,7.4-3.15,1.53,0,2.63,1.31,2.63,2.5,0,3.86-6.18,5.65-10.03,5.65-8.94,0-12.31-6.05-12.31-11.61,0-7.45,4.51-12.44,12.09-12.44s11.57,5.21,11.57,10.47c0,2.19-.66,2.76-2.8,2.76h-14.46ZM302.67,38.43c-.35-2.94-2.54-5.08-5.39-5.08-3.2,0-5.13,1.97-5.83,5.08h11.22Z"/>
  </g>
</svg>