<?xml version="1.0" encoding="UTF-8"?>
<svg id="Layer_1" data-name="Layer 1" xmlns="http://www.w3.org/2000/svg" viewBox="0 0 303.38 67.32">
  <defs>
    <style>
      .cls-1 {
        fill: #b0d235;
      }

      .cls-1, .cls-2 {
        stroke-width: 0px;
      }

      .cls-2 {
        fill: #fff;
      }
    </style>
  </defs>
  <g>
    <path class="cls-1" d="M14.95.27H4.27C2.06.27.27,2.07.27,4.28v16.08c0,2.04.85,4,2.34,5.39l23.77,22.11c.44.41,1.14.02,1.02-.57L18.89,3.56c-.35-1.91-2.01-3.29-3.94-3.29"/>
    <path class="cls-1" d="M26.24,0h11.74c2.64,0,4.24,2.92,2.83,5.15l-11.77,19.91c-.49.83-1.75.62-1.94-.34L23.09,3.88c-.41-2,1.12-3.88,3.15-3.88"/>
    <path class="cls-1" d="M46.4,2.73l-16.28,24.89c-1.33,2.03-1.76,4.51-1.21,6.87l2.71,11.53c.16,1.01,1.44,1.35,2.08.56L66.77,6.35c2.05-2.4.36-6.11-2.79-6.13l-12.84-.07c-1.92-.01-3.71.96-4.74,2.58"/>
    <path class="cls-1" d="M33.28,55.56l1.63,8.32c.35,1.78,1.91,3.07,3.72,3.07h25.65c1.88,0,3.4-1.53,3.4-3.41V21.07c0-3.75-4.69-5.43-7.06-2.54l-26.02,31.78c-1.2,1.46-1.68,3.39-1.32,5.25"/>
    <path class="cls-1" d="M0,63.22v-26.47c0-3.06,3.59-4.71,5.9-2.7l20.72,18.04c1.09.95,1.83,2.24,2.09,3.67l1.44,7.85c.36,1.94-1.14,3.73-3.11,3.71l-23.19-.2c-2.13-.02-3.85-1.76-3.85-3.9"/>
  </g>
  <g>
    <path class="cls-2" d="M118.32,51.09c-.65,2.47-1.69,3.38-4.28,3.38s-3.63-1.13-4.24-3.51l-4.63-19.04h-.09l-4.63,19.04c-.56,2.39-1.56,3.51-4.24,3.51s-3.63-.91-4.28-3.38l-6.1-23.72c-.17-.65-.35-1.34-.35-2.04,0-2.17,1.77-3.21,3.42-3.21,1.82,0,2.9.82,3.33,2.91l4.19,20.73h.09l4.84-20.99c.39-1.73,1.08-2.65,3.72-2.65,2.98,0,3.59,1.43,4.02,3.38l4.71,20.25h.09l4.24-20.73c.43-2.08,1.51-2.91,3.2-2.91s3.42,1.04,3.42,3.21c0,.69-.17,1.39-.35,2.04l-6.1,23.72Z"/>
    <path class="cls-2" d="M137.08,30.66c7.61,0,11.68,5.2,11.68,11.88,0,6.33-3.07,11.93-11.68,11.93s-11.68-5.6-11.68-11.93c0-6.68,4.07-11.88,11.68-11.88ZM137.08,49.79c3.76,0,5.36-3.38,5.36-7.24,0-4.12-1.69-7.2-5.36-7.2s-5.36,3.08-5.36,7.2c0,3.86,1.6,7.24,5.36,7.24Z"/>
    <path class="cls-2" d="M163.55,30.66c7.61,0,11.68,5.2,11.68,11.88,0,6.33-3.07,11.93-11.68,11.93s-11.68-5.6-11.68-11.93c0-6.68,4.06-11.88,11.68-11.88ZM163.55,49.79c3.76,0,5.36-3.38,5.36-7.24,0-4.12-1.69-7.2-5.36-7.2s-5.36,3.08-5.36,7.2c0,3.86,1.6,7.24,5.36,7.24Z"/>
    <path class="cls-2" d="M200.69,51.48c0,1.95-.91,2.99-2.85,2.99s-2.85-1.04-2.85-2.99v-1h-.09c-1.04,2.69-3.59,3.99-6.66,3.99-5.28,0-9.9-3.86-9.9-12.06,0-6.07,3.07-11.75,9.73-11.75,2.81,0,4.97,1.17,6.23,3.21h.09v-8.59c0-2.08,1.25-3.17,3.16-3.17s3.16,1.08,3.16,3.17v26.2ZM189.66,49.53c3.68,0,5.06-3.3,5.06-6.9,0-3.25-1.21-7.07-5.06-7.03-4.02,0-5.02,4.08-5.02,7.03,0,3.73,1.64,6.81,5.02,6.9Z"/>
    <path class="cls-2" d="M236.41,51.09c-.65,2.47-1.69,3.38-4.28,3.38s-3.63-1.13-4.24-3.51l-4.63-19.04h-.09l-4.63,19.04c-.56,2.39-1.56,3.51-4.24,3.51s-3.63-.91-4.28-3.38l-6.1-23.72c-.17-.65-.35-1.34-.35-2.04,0-2.17,1.77-3.21,3.42-3.21,1.82,0,2.9.82,3.33,2.91l4.19,20.73h.09l4.84-20.99c.39-1.73,1.08-2.65,3.72-2.65,2.98,0,3.59,1.43,4.02,3.38l4.71,20.25h.09l4.24-20.73c.43-2.08,1.51-2.91,3.2-2.91s3.42,1.04,3.42,3.21c0,.69-.17,1.39-.35,2.04l-6.1,23.72Z"/>
    <path class="cls-2" d="M249.25,21.94c1.82,0,3.29,1.47,3.29,3.3s-1.47,3.3-3.29,3.3-3.29-1.47-3.29-3.3,1.47-3.3,3.29-3.3ZM246.09,33.83c0-1.69.69-3.17,3.16-3.17s3.16,1.47,3.16,3.17v17.48c0,1.69-.69,3.17-3.16,3.17s-3.16-1.47-3.16-3.17v-17.48Z"/>
    <path class="cls-2" d="M266.24,30.66c4.8,0,9.64,1.91,9.64,4.81,0,1.47-.99,2.78-2.64,2.78-2.47,0-2.55-2.91-6.53-2.91-2.21,0-3.63.61-3.63,1.95,0,1.47,1.43,1.82,3.37,2.26l2.64.61c3.59.82,7.87,2.34,7.87,6.77,0,5.16-4.97,7.55-9.73,7.55-5.71,0-10.47-2.56-10.47-5.68,0-1.39.78-2.65,2.55-2.65,2.72,0,2.98,3.9,7.65,3.9,2.25,0,3.68-1,3.68-2.3,0-1.61-1.38-1.87-3.63-2.43l-3.72-.91c-3.68-.91-6.53-2.43-6.53-6.68,0-5.16,5.1-7.07,9.47-7.07Z"/>
    <path class="cls-2" d="M286.35,43.76c0,3.34,2.16,5.77,5.84,5.77,4.76,0,4.76-3.12,7.31-3.12,1.51,0,2.59,1.3,2.59,2.47,0,3.82-6.1,5.6-9.9,5.6-8.82,0-12.15-5.99-12.15-11.49,0-7.37,4.45-12.32,11.94-12.32s11.42,5.16,11.42,10.37c0,2.17-.65,2.73-2.77,2.73h-14.27ZM297.42,40.12c-.35-2.91-2.51-5.03-5.32-5.03-3.16,0-5.06,1.95-5.75,5.03h11.07Z"/>
  </g>
</svg>