<?xml version="1.0" encoding="UTF-8"?>
<svg id="Layer_1" data-name="Layer 1" xmlns="http://www.w3.org/2000/svg" viewBox="0 0 210.27 120.14">
  <defs>
    <style>
      .cls-1 {
        fill: #010101;
      }

      .cls-1, .cls-2 {
        stroke-width: 0px;
      }

      .cls-2 {
        fill: #0a8040;
      }
    </style>
  </defs>
  <g>
    <path class="cls-2" d="M86.5.26h-10.31c-2.13,0-3.86,1.72-3.86,3.84v15.38c0,1.96.82,3.82,2.26,5.15l22.94,21.16c.42.39,1.1.01.99-.55L90.3,3.41c-.34-1.82-1.94-3.15-3.8-3.15"/>
    <path class="cls-2" d="M97.4,0h11.33c2.55,0,4.09,2.79,2.73,4.93l-11.36,19.05c-.48.8-1.69.59-1.87-.32l-3.88-19.95c-.39-1.92,1.08-3.71,3.04-3.71"/>
    <path class="cls-2" d="M116.85,2.61l-15.71,23.82c-1.28,1.94-1.7,4.32-1.16,6.57l2.62,11.03c.16.96,1.39,1.29,2.01.54l31.91-38.5c1.98-2.3.35-5.85-2.7-5.87l-12.39-.07c-1.85-.01-3.58.92-4.58,2.47"/>
    <path class="cls-2" d="M104.19,53.17l1.57,7.96c.34,1.7,1.84,2.93,3.59,2.93h24.76c1.81,0,3.29-1.46,3.29-3.27V20.16c0-3.59-4.52-5.2-6.81-2.43l-25.11,30.41c-1.16,1.4-1.63,3.25-1.27,5.03"/>
    <path class="cls-2" d="M72.07,60.5v-25.33c0-2.93,3.47-4.5,5.69-2.58l20,17.26c1.05.91,1.77,2.15,2.02,3.51l1.39,7.51c.34,1.86-1.1,3.57-3,3.55l-22.38-.19c-2.06-.02-3.72-1.68-3.72-3.73"/>
  </g>
  <g>
    <path class="cls-1" d="M31.68,116.88c-.63,2.38-1.63,3.25-4.13,3.25s-3.51-1.08-4.09-3.38l-4.47-18.32h-.08l-4.47,18.32c-.54,2.3-1.5,3.38-4.09,3.38s-3.51-.88-4.13-3.25L.33,94.05c-.17-.63-.33-1.29-.33-1.96,0-2.09,1.71-3.09,3.3-3.09,1.75,0,2.8.79,3.21,2.8l4.05,19.95h.08l4.67-20.2c.38-1.67,1.04-2.55,3.59-2.55,2.88,0,3.46,1.38,3.88,3.26l4.55,19.49h.08l4.09-19.95c.42-2,1.46-2.8,3.09-2.8s3.3,1,3.3,3.09c0,.67-.17,1.34-.33,1.96l-5.88,22.83Z"/>
    <path class="cls-1" d="M49.78,97.22c7.35,0,11.27,5.01,11.27,11.44,0,6.09-2.96,11.48-11.27,11.48s-11.27-5.38-11.27-11.48c0-6.43,3.92-11.44,11.27-11.44ZM49.78,115.63c3.63,0,5.18-3.25,5.18-6.97,0-3.96-1.63-6.93-5.18-6.93s-5.18,2.96-5.18,6.93c0,3.71,1.54,6.97,5.18,6.97Z"/>
    <path class="cls-1" d="M75.32,97.22c7.34,0,11.27,5.01,11.27,11.44,0,6.09-2.96,11.48-11.27,11.48s-11.27-5.38-11.27-11.48c0-6.43,3.92-11.44,11.27-11.44ZM75.32,115.63c3.63,0,5.18-3.25,5.18-6.97,0-3.96-1.63-6.93-5.18-6.93s-5.18,2.96-5.18,6.93c0,3.71,1.54,6.97,5.18,6.97Z"/>
    <path class="cls-1" d="M111.17,117.26c0,1.88-.88,2.88-2.75,2.88s-2.75-1-2.75-2.88v-.96h-.08c-1,2.59-3.46,3.84-6.43,3.84-5.09,0-9.56-3.71-9.56-11.6,0-5.84,2.96-11.31,9.39-11.31,2.71,0,4.8,1.13,6.01,3.09h.08v-8.26c0-2,1.21-3.05,3.05-3.05s3.05,1.04,3.05,3.05v25.21ZM100.52,115.38c3.55,0,4.88-3.17,4.88-6.64,0-3.13-1.17-6.8-4.88-6.76-3.88,0-4.84,3.92-4.84,6.76,0,3.59,1.59,6.55,4.84,6.64Z"/>
    <path class="cls-1" d="M145.64,116.88c-.63,2.38-1.63,3.25-4.13,3.25s-3.51-1.08-4.09-3.38l-4.47-18.32h-.08l-4.47,18.32c-.54,2.3-1.5,3.38-4.09,3.38s-3.51-.88-4.13-3.25l-5.88-22.83c-.17-.63-.33-1.29-.33-1.96,0-2.09,1.71-3.09,3.3-3.09,1.75,0,2.8.79,3.21,2.8l4.05,19.95h.08l4.67-20.2c.38-1.67,1.04-2.55,3.59-2.55,2.88,0,3.46,1.38,3.88,3.26l4.55,19.49h.08l4.09-19.95c.42-2,1.46-2.8,3.09-2.8s3.3,1,3.3,3.09c0,.67-.17,1.34-.33,1.96l-5.88,22.83Z"/>
    <path class="cls-1" d="M158.03,88.84c1.75,0,3.17,1.42,3.17,3.17s-1.42,3.17-3.17,3.17-3.17-1.42-3.17-3.17,1.42-3.17,3.17-3.17ZM154.98,100.27c0-1.63.67-3.05,3.05-3.05s3.05,1.42,3.05,3.05v16.82c0,1.63-.67,3.05-3.05,3.05s-3.05-1.42-3.05-3.05v-16.82Z"/>
    <path class="cls-1" d="M174.43,97.22c4.63,0,9.31,1.84,9.31,4.63,0,1.42-.96,2.67-2.55,2.67-2.38,0-2.46-2.8-6.3-2.8-2.13,0-3.51.58-3.51,1.88,0,1.42,1.38,1.75,3.25,2.17l2.55.58c3.46.79,7.6,2.25,7.6,6.51,0,4.97-4.8,7.26-9.39,7.26-5.51,0-10.1-2.46-10.1-5.47,0-1.34.75-2.55,2.46-2.55,2.63,0,2.88,3.76,7.39,3.76,2.17,0,3.55-.96,3.55-2.21,0-1.54-1.34-1.79-3.51-2.34l-3.59-.88c-3.55-.88-6.3-2.34-6.3-6.43,0-4.97,4.92-6.8,9.14-6.8Z"/>
    <path class="cls-1" d="M193.83,109.83c0,3.21,2.09,5.55,5.63,5.55,4.59,0,4.59-3,7.05-3,1.46,0,2.5,1.25,2.5,2.38,0,3.67-5.88,5.38-9.56,5.38-8.51,0-11.73-5.76-11.73-11.06,0-7.09,4.3-11.85,11.52-11.85s11.02,4.97,11.02,9.97c0,2.09-.63,2.63-2.67,2.63h-13.77ZM204.51,106.32c-.33-2.8-2.42-4.84-5.13-4.84-3.05,0-4.88,1.88-5.55,4.84h10.68Z"/>
  </g>
</svg>